<svg xmlns="http://www.w3.org/2000/svg" width="900" height="900" viewBox="0 0 900 900">
  <defs>
    <linearGradient id="g" x1="0" y1="0" x2="1" y2="1">
      <stop offset="0" stop-color="#1F73C9"/>
      <stop offset="1" stop-color="#54A7FF"/>
    </linearGradient>
    <linearGradient id="g2" x1="0" y1="1" x2="1" y2="0">
      <stop offset="0" stop-color="#E6F1FF"/>
      <stop offset="1" stop-color="#FFFFFF"/>
    </linearGradient>
    <filter id="shadow" x="-20%" y="-20%" width="140%" height="140%">
      <feDropShadow dx="0" dy="18" stdDeviation="18" flood-color="#0B2B4A" flood-opacity="0.18"/>
    </filter>
  </defs>

  <rect width="900" height="900" fill="url(#g2)"/>
  <circle cx="160" cy="170" r="150" fill="#1F73C9" opacity="0.12"/>
  <circle cx="750" cy="260" r="210" fill="#54A7FF" opacity="0.10"/>
  <circle cx="640" cy="760" r="250" fill="#1F73C9" opacity="0.10"/>

  <g filter="url(#shadow)">
    <rect x="140" y="210" width="620" height="480" rx="44" fill="#ffffff" stroke="#D9E8FF" stroke-width="3"/>
    <rect x="140" y="210" width="620" height="110" rx="44" fill="#F6FAFF" stroke="#D9E8FF" stroke-width="3"/>

    <rect x="200" y="252" width="220" height="16" rx="8" fill="#0B1220" opacity="0.16"/>
    <rect x="200" y="280" width="300" height="10" rx="5" fill="#0B1220" opacity="0.10"/>

    <rect x="200" y="360" width="500" height="68" rx="22" fill="#FFFFFF" stroke="#D9E8FF" stroke-width="2"/>
    <rect x="225" y="386" width="210" height="12" rx="6" fill="#0B1220" opacity="0.12"/>

    <rect x="200" y="450" width="500" height="68" rx="22" fill="#FFFFFF" stroke="#D9E8FF" stroke-width="2"/>
    <rect x="225" y="476" width="160" height="12" rx="6" fill="#0B1220" opacity="0.12"/>

    <rect x="200" y="550" width="240" height="58" rx="20" fill="url(#g)"/>
    <rect x="235" y="574" width="170" height="10" rx="5" fill="#ffffff" opacity="0.9"/>

    <rect x="470" y="550" width="230" height="58" rx="20" fill="#FFFFFF" stroke="#D9E8FF" stroke-width="2"/>
    <rect x="505" y="574" width="160" height="10" rx="5" fill="#1F73C9" opacity="0.55"/>
  </g>

  <g filter="url(#shadow)">
    <rect x="90" y="710" width="360" height="120" rx="32" fill="#ffffff" stroke="#D9E8FF" stroke-width="2"/>
    <rect x="130" y="748" width="84" height="34" rx="17" fill="url(#g)"/>
    <rect x="230" y="754" width="180" height="12" rx="6" fill="#0B1220" opacity="0.16"/>
    <rect x="230" y="778" width="220" height="10" rx="5" fill="#0B1220" opacity="0.10"/>
  </g>
</svg>
